<?xml version="1.0" standalone="no"?>
<!DOCTYPE svg PUBLIC "-//W3C//DTD SVG 20010904//EN"
 "http://www.w3.org/TR/2001/REC-SVG-20010904/DTD/svg10.dtd">
<svg version="1.0" xmlns="http://www.w3.org/2000/svg"
 width="996.000000pt" height="1107.000000pt" viewBox="0 0 996.000000 1107.000000"
 preserveAspectRatio="xMidYMid meet">

<g transform="translate(0.000000,1107.000000) scale(0.100000,-0.100000)"
fill="#a08048" stroke="none">
<path d="M8650 10154 c-30 -2 -469 -5 -974 -7 l-920 -2 -169 -375 c-360 -801
-978 -2208 -1232 -2807 -87 -205 -162 -370 -167 -367 -14 9 -279 557 -530
1094 -332 711 -775 1717 -1009 2292 l-64 158 -1787 0 c-984 0 -1788 -2 -1788
-5 0 -3 70 -166 156 -361 264 -606 560 -1315 659 -1579 29 -77 174 -405 323
-730 1409 -3083 2662 -5794 2884 -6242 85 -170 93 -183 126 -194 38 -13 614
-6 707 8 l49 8 128 250 c529 1037 4293 8833 4274 8852 -5 5 -600 12 -666 7z"/>
</g>
</svg>
